<?xml version="1.0" encoding="UTF-8" standalone="no"?>
<!DOCTYPE svg PUBLIC "-//W3C//DTD SVG 1.1//EN"
 "http://www.w3.org/Graphics/SVG/1.1/DTD/svg11.dtd">
<!-- Generated by graphviz version 2.38.0 (20140413.2041)
 -->
<!-- Title: Tree Pages: 1 -->
<svg width="220pt" height="195pt"
 viewBox="0.00 0.00 220.00 195.00" xmlns="http://www.w3.org/2000/svg" xmlns:xlink="http://www.w3.org/1999/xlink">
<g id="graph0" class="graph" transform="scale(1 1) rotate(0) translate(4 191)">
<title>Tree</title>
<polygon fill="white" stroke="none" points="-4,4 -4,-191 216,-191 216,4 -4,4"/>
<!-- 0 -->
<g id="node1" class="node"><title>0</title>
<path fill="#ffffff" stroke="black" d="M142,-187C142,-187 69,-187 69,-187 63,-187 57,-181 57,-175 57,-175 57,-116 57,-116 57,-110 63,-104 69,-104 69,-104 142,-104 142,-104 148,-104 154,-110 154,-116 154,-116 154,-175 154,-175 154,-181 148,-187 142,-187"/>
<text text-anchor="start" x="73" y="-171.8" font-family="Helvetica,sans-Serif" font-size="14.00">pro1 ≤ 0.5</text>
<text text-anchor="start" x="76.5" y="-156.8" font-family="Helvetica,sans-Serif" font-size="14.00">gini = 0.5</text>
<text text-anchor="start" x="66" y="-141.8" font-family="Helvetica,sans-Serif" font-size="14.00">samples = 2</text>
<text text-anchor="start" x="65" y="-126.8" font-family="Helvetica,sans-Serif" font-size="14.00">value = [1, 1]</text>
<text text-anchor="start" x="67.5" y="-111.8" font-family="Helvetica,sans-Serif" font-size="14.00">class = cls1</text>
</g>
<!-- 1 -->
<g id="node2" class="node"><title>1</title>
<path fill="#e58139" stroke="black" d="M85,-68C85,-68 12,-68 12,-68 6,-68 0,-62 0,-56 0,-56 0,-12 0,-12 0,-6 6,-0 12,-0 12,-0 85,-0 85,-0 91,-0 97,-6 97,-12 97,-12 97,-56 97,-56 97,-62 91,-68 85,-68"/>
<text text-anchor="start" x="19.5" y="-52.8" font-family="Helvetica,sans-Serif" font-size="14.00">gini = 0.0</text>
<text text-anchor="start" x="9" y="-37.8" font-family="Helvetica,sans-Serif" font-size="14.00">samples = 1</text>
<text text-anchor="start" x="8" y="-22.8" font-family="Helvetica,sans-Serif" font-size="14.00">value = [1, 0]</text>
<text text-anchor="start" x="10.5" y="-7.8" font-family="Helvetica,sans-Serif" font-size="14.00">class = cls1</text>
</g>
<!-- 0&#45;&gt;1 -->
<g id="edge1" class="edge"><title>0&#45;&gt;1</title>
<path fill="none" stroke="black" d="M84.2753,-103.726C79.7649,-95.0615 74.9939,-85.8962 70.4568,-77.1802"/>
<polygon fill="black" stroke="black" points="73.556,-75.5537 65.834,-68.2996 67.3469,-78.7859 73.556,-75.5537"/>
<text text-anchor="middle" x="58.316" y="-88.4424" font-family="Helvetica,sans-Serif" font-size="14.00">True</text>
</g>
<!-- 2 -->
<g id="node3" class="node"><title>2</title>
<path fill="#399de5" stroke="black" d="M200,-68C200,-68 127,-68 127,-68 121,-68 115,-62 115,-56 115,-56 115,-12 115,-12 115,-6 121,-0 127,-0 127,-0 200,-0 200,-0 206,-0 212,-6 212,-12 212,-12 212,-56 212,-56 212,-62 206,-68 200,-68"/>
<text text-anchor="start" x="134.5" y="-52.8" font-family="Helvetica,sans-Serif" font-size="14.00">gini = 0.0</text>
<text text-anchor="start" x="124" y="-37.8" font-family="Helvetica,sans-Serif" font-size="14.00">samples = 1</text>
<text text-anchor="start" x="123" y="-22.8" font-family="Helvetica,sans-Serif" font-size="14.00">value = [0, 1]</text>
<text text-anchor="start" x="125.5" y="-7.8" font-family="Helvetica,sans-Serif" font-size="14.00">class = cls2</text>
</g>
<!-- 0&#45;&gt;2 -->
<g id="edge2" class="edge"><title>0&#45;&gt;2</title>
<path fill="none" stroke="black" d="M127.097,-103.726C131.687,-95.0615 136.541,-85.8962 141.158,-77.1802"/>
<polygon fill="black" stroke="black" points="144.274,-78.7748 145.862,-68.2996 138.088,-75.4982 144.274,-78.7748"/>
<text text-anchor="middle" x="153.209" y="-88.4956" font-family="Helvetica,sans-Serif" font-size="14.00">False</text>
</g>
</g>
</svg>
